<?xml version="1.0" encoding="UTF-8" standalone="no"?>
<svg
   xmlns:dc="http://purl.org/dc/elements/1.1/"
   xmlns:cc="http://creativecommons.org/ns#"
   xmlns:rdf="http://www.w3.org/1999/02/22-rdf-syntax-ns#"
   xmlns:svg="http://www.w3.org/2000/svg"
   xmlns="http://www.w3.org/2000/svg"
   xmlns:sodipodi="http://sodipodi.sourceforge.net/DTD/sodipodi-0.dtd"
   xmlns:inkscape="http://www.inkscape.org/namespaces/inkscape"
   inkscape:version="0.92.3 (2405546, 2018-03-11)"
   sodipodi:docname="logo.svg"
   id="svg7"
   version="1.1"
   viewBox="0 0 328 54"
   height="54"
   width="328">
  <metadata
     id="metadata13">
    <rdf:RDF>
      <cc:Work
         rdf:about="">
        <dc:format>image/svg+xml</dc:format>
        <dc:type
           rdf:resource="http://purl.org/dc/dcmitype/StillImage" />
      </cc:Work>
    </rdf:RDF>
  </metadata>
  <defs
     id="defs11" />
  <sodipodi:namedview
     inkscape:current-layer="svg7"
     inkscape:window-maximized="1"
     inkscape:window-y="27"
     inkscape:window-x="0"
     inkscape:cy="31.755124"
     inkscape:cx="52.861224"
     inkscape:zoom="2.6020668"
     showgrid="false"
     id="namedview9"
     inkscape:window-height="845"
     inkscape:window-width="1440"
     inkscape:pageshadow="2"
     inkscape:pageopacity="0"
     guidetolerance="10"
     gridtolerance="10"
     objecttolerance="10"
     borderopacity="1"
     bordercolor="#666666"
     pagecolor="#ffffff"
     inkscape:document-rotation="0"
     showguides="false" />
  <g
     aria-label="Picu"
     transform="scale(1.037875,0.96350717)"
     style="font-weight:300;font-size:56.17724991px;font-family:Lato-Light, Lato;fill:#ffffff;fill-opacity:0.516461;stroke-width:1.27676666"
     id="BIENESRAICES">
    <path
       d="M 8.6588134,23.226822 H 19.740654 q 5.815223,0 7.515901,-4.224266 0.603467,-1.371515 0.603467,-3.072193 0,-5.102036 -4.498569,-6.6929931 Q 21.770496,8.6339034 19.740654,8.6339034 H 8.6588134 Z m 0,4.718011 V 45.555084 H 3.3921962 V 3.9707528 H 20.563563 q 9.161719,0 11.849888,6.7478532 0.987491,2.304145 0.987491,5.431199 0,5.54092 -3.620799,8.832556 -3.291636,2.962472 -8.009647,2.962472 z"
       style="font-style:normal;font-variant:normal;font-weight:normal;font-stretch:normal;font-family:Gargi;-inkscape-font-specification:Gargi;fill:#ffffff;fill-opacity:0.516461;stroke-width:1.27676666"
       id="path4522" />
    <path
       d="M 44.811947,3.9707528 V 9.9505577 H 40.039075 V 3.9707528 Z m 0,11.6853072 V 45.555084 H 40.093936 V 15.65606 Z"
       style="font-style:normal;font-variant:normal;font-weight:normal;font-stretch:normal;font-family:Gargi;-inkscape-font-specification:Gargi;fill:#ffffff;fill-opacity:0.516461;stroke-width:1.27676666"
       id="path4524" />
    <path
       d="m 75.479021,24.324034 h -4.827732 q -0.713188,-5.54092 -5.48606,-6.363829 -0.768048,-0.109722 -1.536096,-0.109722 -5.376339,0 -7.406181,5.705502 -0.877769,2.578448 -0.877769,6.199248 0,7.790204 4.498569,10.368652 1.645817,0.987491 3.895102,0.987491 6.089526,0 7.296459,-7.186738 h 4.772872 q 0,7.790205 -6.583272,10.423513 -2.413866,1.152073 -5.59578,1.152073 -7.406181,0 -10.917259,-5.979805 -2.359006,-4.004824 -2.359006,-9.765186 0,-9.16172 5.266618,-13.550567 3.346496,-2.797891 8.064507,-2.797891 6.034666,0 9.326301,3.895102 l 0.438885,0.603467 q 1.700679,2.413866 2.029842,6.41869 z"
       style="font-style:normal;font-variant:normal;font-weight:normal;font-stretch:normal;font-family:Gargi;-inkscape-font-specification:Gargi;fill:#ffffff;fill-opacity:0.516461;stroke-width:1.27676666"
       id="path4526" />
    <path
       d="m 103.95167,44.293291 h -4.27913 v -4.169406 q -3.181914,4.498569 -7.40618,5.266617 -1.152073,0.219443 -2.578448,0.219443 -6.089526,0 -8.448532,-4.004824 -1.042351,-1.810399 -1.042351,-4.169405 v -23.04145 h 4.718011 v 21.17619 q 0,4.004823 3.346496,5.376338 1.261794,0.493746 2.797891,0.493746 4.882593,0 7.022156,-4.443709 1.152072,-2.413866 1.152072,-5.650641 V 14.394266 h 4.718015 z"
       style="font-style:normal;font-variant:normal;font-weight:normal;font-stretch:normal;font-family:Gargi;-inkscape-font-specification:Gargi;fill:#ffffff;fill-opacity:0.516461;stroke-width:1.27676666"
       id="path4528" />
  </g>
  <g
     aria-label="Rifas"
     transform="scale(0.85542131,1.1690146)"
     style="font-weight:300;font-size:46.30163574px;font-family:Lato-Light, Lato;fill:#ffffff;fill-opacity:0.72726686;stroke-width:1.05230689"
     id="text17">
    <path
       d="m 138.14217,12.383754 h 3.25558 q 1.60518,0 2.84863,1.311277 1.22085,1.243452 1.22085,4.657293 0,3.43645 -1.22085,4.679902 -1.15301,1.220844 -2.84863,1.26606 h -3.25558 z m 10.30934,13.451891 q 0.97216,-0.836504 1.60519,-1.831266 1.74083,-2.712986 1.74083,-5.448581 0,-3.368625 -2.23821,-5.96857 -2.193,-2.577337 -5.4938,-3.05211 l -0.20347,-0.045216 q -0.36174,-0.090433 -1.22085,-0.090433 h -7.79983 q -1.40171,0 -2.39648,0.9947613 -0.99476,0.994762 -0.99476,2.351255 v 21.952583 q 0,1.311276 0.99476,2.306038 0.94955,0.949545 2.30604,0.949545 h 0.0904 q 1.28866,0 2.30603,-0.949545 0.99477,-0.904329 0.99477,-2.306038 v -6.963332 l 4.9738,-0.09043 2.12518,6.307693 q 1.06258,3.187759 3.70774,3.866006 1.26607,0.361732 2.41908,-0.316515 h 0.0452 q 0.99476,-0.02261 1.49214,-1.989524 0.38434,-1.537359 -0.33912,-2.758202 z"
       style="font-style:normal;font-variant:normal;font-weight:normal;font-stretch:normal;font-family:Dyuthi;-inkscape-font-specification:Dyuthi;fill:#ffffff;fill-opacity:0.72726686;stroke-width:1.05230689"
       id="path4531" />
    <path
       d="m 159.09999,37.704961 q -1.40171,0 -2.39647,-0.972154 -0.97216,-0.994761 -0.97216,-2.396471 v -13.33885 q 0,-1.40171 0.99476,-2.396472 0.99477,-0.994761 2.37387,-0.994761 h 0.0452 q 1.3565,0.02261 2.35126,0.994761 0.99476,0.994762 0.99476,2.396472 v 13.33885 q 0,1.40171 -0.99476,2.396471 -0.97216,0.972154 -2.35126,0.972154 z m 2.12517,-22.99256 q -1.06259,1.039978 -2.4869,1.039978 -1.44693,0 -2.4643,-1.039978 -0.99476,-0.994762 -0.99476,-2.464296 0,-1.424318 0.99476,-2.4416883 1.01737,-1.0173699 2.4643,-1.0173699 1.4017,0 2.4869,1.0173699 0.97215,0.9495453 0.99476,2.4416883 -0.0226,1.469534 -0.99476,2.464296 z"
       style="font-style:normal;font-variant:normal;font-weight:normal;font-stretch:normal;font-family:Dyuthi;-inkscape-font-specification:Dyuthi;fill:#ffffff;fill-opacity:0.72726686;stroke-width:1.05230689"
       id="path4533" />
    <path
       d="m 180.08042,11.456817 q 0.2939,-1.288669 -0.58782,-2.2834305 -0.88172,-0.9721535 -1.98952,-0.9495453 -4.63469,0.067825 -7.16681,2.9842848 -2.05735,2.373864 -2.05735,4.770335 v 3.006893 h -0.63303 q -0.88172,0.02261 -1.60518,0.700855 -0.70085,0.700855 -0.70085,1.627792 v 0.04522 q 0,0.926937 0.70085,1.627792 0.63303,0.678247 1.60518,0.678247 h 0.63303 v 11.168461 q 0,1.311277 0.8139,2.102564 0.90433,0.859113 2.14778,0.859113 h 0.0904 q 1.22085,0 2.10257,-0.859113 0.85911,-0.88172 0.85911,-2.102564 V 23.665256 h 1.78605 q 0.99476,0 1.62779,-0.678247 0.67825,-0.655638 0.67825,-1.627792 v -0.04522 q -0.0226,-0.949545 -0.67825,-1.627792 -0.70085,-0.700855 -1.62779,-0.700855 h -1.78605 V 17.13148 q 0,-3.526882 3.88862,-3.707748 1.46953,-0.06782 1.89909,-1.899091 z"
       style="font-style:normal;font-variant:normal;font-weight:normal;font-stretch:normal;font-family:Dyuthi;-inkscape-font-specification:Dyuthi;fill:#ffffff;fill-opacity:0.72726686;stroke-width:1.05230689"
       id="path4535" />
    <path
       d="m 188.87501,26.853015 q 0,-2.758203 0.5426,-4.001655 0.61042,-1.311277 1.60518,-1.763441 2.05735,-0.994762 4.13731,-0.203474 1.80866,0.700855 2.2156,1.966915 v 7.641579 q 0,2.509512 -2.14778,3.255583 -1.06258,0.339124 -2.10256,0.203474 -1.76344,0.04522 -3.0069,-1.605183 -1.24345,-1.6504 -1.24345,-4.001655 z m -3.3008,7.799836 q 2.89385,3.05211 7.00855,3.05211 1.17563,0 3.39123,-1.446926 0.5426,-0.361732 1.15302,-0.271299 0.63303,0.06782 1.0852,0.565206 1.06258,1.153019 1.6504,1.153019 h 2.71298 q 0.5426,0 0.94955,-0.406948 0.38434,-0.339123 0.38434,-0.904329 V 19.889683 q 0,-0.994762 -0.70086,-1.740833 -0.72346,-0.655638 -1.69561,-0.655638 h -1.74084 q -0.99476,0 -1.6504,0.655638 -0.74607,0.746071 -0.74607,1.740833 v 0 q -1.31127,-3.05211 -4.79294,-3.05211 -4.1147,0 -7.00855,3.05211 -2.89385,3.05211 -2.89385,7.392888 0,4.31817 2.89385,7.37028 z"
       style="font-style:normal;font-variant:normal;font-weight:normal;font-stretch:normal;font-family:Dyuthi;-inkscape-font-specification:Dyuthi;fill:#ffffff;fill-opacity:0.72726686;stroke-width:1.05230689"
       id="path4537" />
    <path
       d="m 206.84855,34.336336 q 0.20348,-0.859112 1.1078,-1.40171 0.8139,-0.497381 1.76345,-0.180865 1.83126,0.587813 3.23297,0.542597 2.71299,-0.04522 2.71299,-1.695617 0,-0.746071 -0.61042,-1.26606 -0.5426,-0.429556 -2.35126,-1.062586 -5.87814,-2.012132 -5.83292,-6.149436 0.0678,-2.961677 2.28343,-4.770335 2.23821,-1.876482 6.01379,-1.89909 1.76344,-0.02261 3.63992,0.49738 0.8365,0.226083 1.31128,0.994762 0.49738,0.791288 0.24869,1.6504 v 0.02261 q -0.15826,0.859113 -0.99476,1.379102 -0.8139,0.497381 -1.71823,0.24869 -1.24345,-0.339123 -2.28343,-0.384339 -2.41908,-0.04522 -2.41908,1.605183 0,0.700855 0.74607,1.243452 0.63303,0.497381 2.55473,1.15302 5.42597,1.921698 5.47119,6.239868 0.0452,2.961677 -2.17039,4.792943 -2.23821,1.853874 -6.6016,1.853874 -2.28343,0 -4.54425,-0.610422 -0.79129,-0.226082 -1.31128,-1.085194 -0.49738,-0.791288 -0.24869,-1.6504 z"
       style="font-style:normal;font-variant:normal;font-weight:normal;font-stretch:normal;font-family:Dyuthi;-inkscape-font-specification:Dyuthi;fill:#ffffff;fill-opacity:0.72726686;stroke-width:1.05230689"
       id="path4539" />
  </g>
</svg>
